<?xml version="1.0" encoding="UTF-8"?>
<svg id="Layer_2" xmlns="http://www.w3.org/2000/svg" xmlns:xlink="http://www.w3.org/1999/xlink" version="1.1" viewBox="0 0 760.32 336.96">
  <!-- Generator: Adobe Illustrator 29.5.1, SVG Export Plug-In . SVG Version: 2.1.0 Build 141)  -->
  <defs>
    <style>
      .st0, .st1 {
        fill: none;
      }

      .st1 {
        stroke: #666;
        stroke-miterlimit: 10;
        stroke-width: 9.51px;
      }

      .st2 {
        fill: #02a7ff;
      }

      .st3 {
        fill: url(#linear-gradient);
      }

      .st4 {
        fill: #4d4d4d;
      }

      .st5 {
        fill: #666;
      }

      .st6 {
        fill: #f2f2f2;
      }

      .st7 {
        clip-path: url(#clippath);
      }
    </style>
    <linearGradient id="linear-gradient" x1="617.14" y1="192.11" x2="680.01" y2="192.11" gradientTransform="translate(0 332.59) scale(1 -1)" gradientUnits="userSpaceOnUse">
      <stop offset="0" stop-color="#666"/>
      <stop offset=".22" stop-color="#6c6c6c"/>
      <stop offset=".5" stop-color="#7d7d7d"/>
      <stop offset=".77" stop-color="#6d6d6d"/>
      <stop offset="1" stop-color="#666"/>
    </linearGradient>
    <clipPath id="clippath">
      <rect class="st0" x="620.43" y="136.23" width="69.59" height="130.92" transform="translate(-20.32 84.89) rotate(-7.3)"/>
    </clipPath>
  </defs>
  <g>
    <g>
      <path class="st6" d="M234.81,76.07c6.01,6.61,9.01,15.76,9.01,27.45v46.13h-25.96v-44.64c0-5.29-1.32-9.42-3.97-12.4-2.65-2.98-6.28-4.46-10.91-4.46-5.07,0-9.15,1.71-12.23,5.12-3.09,3.42-4.63,7.88-4.63,13.39v42.99h-25.96v-81.68h22.49l1.65,9.59c3.2-3.64,7.03-6.45,11.49-8.43s9.4-2.98,14.8-2.98c10.14,0,18.21,3.31,24.22,9.92h0Z"/>
      <path class="st6" d="M256.38,140.88l9.92-17.86c3.97,2.43,8.57,4.3,13.81,5.62,5.23,1.32,10.44,1.98,15.62,1.98,7.16,0,10.75-1.93,10.75-5.79,0-1.98-.99-3.47-2.98-4.46s-5.29-1.65-9.92-1.98c-10.36-.55-18.6-3.14-24.72-7.77s-9.18-10.69-9.18-18.19c0-8.16,3.31-14.63,9.92-19.43,6.61-4.79,15.54-7.19,26.78-7.19,6.39,0,12.48.77,18.27,2.32,5.79,1.54,10.77,3.69,14.96,6.45l-10.09,17.36c-6.17-3.53-13.5-5.29-21.99-5.29s-12.57,1.98-12.57,5.95c0,1.65.85,2.92,2.56,3.8,1.71.88,4.6,1.54,8.68,1.98,11.68.88,20.58,3.53,26.7,7.94,6.12,4.41,9.18,10.58,9.18,18.52,0,8.38-3.36,14.96-10.09,19.76-6.72,4.79-16.04,7.19-27.94,7.19-14.44,0-27.01-3.64-37.7-10.91h.03Z"/>
      <path class="st6" d="M348.06,55.9c-2.81-2.65-4.22-6.01-4.22-10.09s1.43-7.6,4.3-10.25c2.86-2.65,6.5-3.97,10.91-3.97s8.04,1.32,10.91,3.97c2.86,2.65,4.3,6.06,4.3,10.25s-1.41,7.44-4.22,10.09c-2.81,2.64-6.48,3.97-10.99,3.97s-8.18-1.32-10.99-3.97ZM345.99,67.97h25.96v81.67h-25.96v-81.67Z"/>
      <path class="st6" d="M477.1,33.91v115.73h-22.48l-1.65-9.75c-6.94,7.61-15.98,11.41-27.11,11.41-7.61,0-14.36-1.79-20.25-5.37-5.9-3.58-10.5-8.6-13.81-15.04-3.31-6.45-4.96-13.81-4.96-22.07s1.65-15.62,4.96-22.07,7.91-11.46,13.81-15.04,12.65-5.37,20.25-5.37c10.03,0,18.46,3.14,25.3,9.42v-41.85h25.96-.02ZM446.02,123.77c3.64-3.8,5.46-8.79,5.46-14.96s-1.82-11.16-5.46-14.96c-3.64-3.8-8.32-5.7-14.05-5.7s-10.39,1.93-13.97,5.79c-3.58,3.86-5.37,8.82-5.37,14.88s1.79,11.02,5.37,14.88c3.58,3.86,8.24,5.79,13.97,5.79s10.42-1.9,14.05-5.7v-.02Z"/>
      <path class="st6" d="M555.3,71.2c6.5,3.36,11.49,8.1,14.96,14.22s5.21,13.25,5.21,21.41c0,2.64-.28,5.9-.83,9.75h-60.02c.77,4.19,3.03,7.58,6.78,10.17s8.54,3.89,14.38,3.89c4.08,0,8.04-.6,11.9-1.82,3.86-1.21,7.16-2.92,9.92-5.12l13.56,14.55c-4.63,4.3-10.11,7.61-16.45,9.92-6.34,2.31-13.09,3.47-20.25,3.47-9.48,0-17.69-1.74-24.63-5.21s-12.29-8.4-16.04-14.8c-3.75-6.39-5.62-13.94-5.62-22.65s1.84-15.81,5.54-22.32c3.69-6.5,8.84-11.54,15.46-15.13,6.61-3.58,14.27-5.37,22.98-5.37s16.64,1.68,23.15,5.04h0ZM520.33,90.62c-3.25,2.65-5.1,6.34-5.54,11.08h36.04c-.33-4.74-2.07-8.43-5.21-11.08-3.14-2.65-7.36-3.97-12.65-3.97s-9.4,1.32-12.65,3.97h0Z"/>
    </g>
    <g>
      <polygon class="st6" points="111.51 100.22 84.4 125.99 49.1 125.99 49.1 149.63 146.81 149.63 146.81 125.99 111.51 125.99 111.51 100.22"/>
      <polygon class="st6" points="49.18 33.91 49.18 57.55 84.4 57.55 84.4 83.42 111.51 57.55 111.51 57.55 146.89 57.55 146.89 33.91 49.18 33.91"/>
      <polygon class="st2" points="84.4 83.42 84.4 125.99 111.51 100.22 111.51 57.55 84.4 83.42"/>
    </g>
  </g>
  <g>
    <path class="st6" d="M114.3,240.24l9.92-17.86c3.97,2.43,8.57,4.3,13.81,5.62,5.23,1.32,10.44,1.98,15.62,1.98,7.16,0,10.75-1.93,10.75-5.79,0-1.98-.99-3.47-2.98-4.46s-5.29-1.65-9.92-1.98c-10.36-.55-18.6-3.14-24.72-7.77s-9.18-10.69-9.18-18.19c0-8.16,3.31-14.63,9.92-19.43,6.61-4.79,15.54-7.19,26.78-7.19,6.39,0,12.48.77,18.27,2.32,5.79,1.54,10.77,3.69,14.96,6.45l-10.09,17.36c-6.17-3.53-13.5-5.29-21.99-5.29s-12.57,1.98-12.57,5.95c0,1.65.85,2.92,2.56,3.8s4.6,1.54,8.68,1.98c11.68.88,20.58,3.53,26.7,7.94,6.12,4.41,9.18,10.58,9.18,18.52,0,8.38-3.36,14.96-10.09,19.76-6.72,4.79-16.04,7.19-27.94,7.19-14.44,0-27.01-3.64-37.7-10.91h.03Z"/>
    <path class="st6" d="M219.37,245.63c-6.78-3.47-12.01-8.4-15.71-14.8-3.69-6.39-5.54-13.89-5.54-22.49s1.87-15.95,5.62-22.4,8.98-11.46,15.71-15.04c6.72-3.58,14.49-5.37,23.31-5.37,6.06,0,11.85,1.07,17.36,3.22s10.42,5.32,14.71,9.51l-14.38,15.71c-4.63-4.3-10.09-6.45-16.37-6.45-5.95,0-10.8,1.9-14.55,5.7s-5.62,8.79-5.62,14.96,1.84,11.16,5.54,14.96c3.69,3.8,8.57,5.7,14.63,5.7,6.72,0,12.45-2.37,17.19-7.11l14.71,15.54c-9.15,9.04-20.06,13.56-32.74,13.56-9.15,0-17.11-1.74-23.89-5.21h.02Z"/>
    <path class="st6" d="M302.7,245.46c-6.78-3.58-11.99-8.57-15.62-14.96-3.64-6.39-5.46-13.83-5.46-22.32s1.82-15.93,5.46-22.32c3.64-6.39,8.85-11.38,15.62-14.96,6.78-3.58,14.69-5.37,23.73-5.37s16.97,1.79,23.81,5.37c6.83,3.58,12.07,8.57,15.71,14.96,3.64,6.39,5.46,13.83,5.46,22.32s-1.82,15.93-5.46,22.32c-3.64,6.39-8.87,11.38-15.71,14.96s-14.77,5.37-23.81,5.37-16.95-1.79-23.73-5.37h0ZM340.31,223.05c3.53-3.86,5.29-8.82,5.29-14.88s-1.76-11.02-5.29-14.88-8.16-5.79-13.89-5.79-10.2,1.93-13.72,5.79c-3.53,3.86-5.29,8.82-5.29,14.88s1.76,11.02,5.29,14.88,8.1,5.79,13.72,5.79,10.36-1.93,13.89-5.79Z"/>
    <path class="st6" d="M402.72,245.46c-6.78-3.58-11.99-8.57-15.62-14.96-3.64-6.39-5.46-13.83-5.46-22.32s1.82-15.93,5.46-22.32c3.64-6.39,8.84-11.38,15.62-14.96s14.69-5.37,23.72-5.37,16.97,1.79,23.81,5.37c6.83,3.58,12.07,8.57,15.71,14.96,3.64,6.39,5.46,13.83,5.46,22.32s-1.82,15.93-5.46,22.32c-3.64,6.39-8.87,11.38-15.71,14.96-6.83,3.58-14.77,5.37-23.81,5.37s-16.95-1.79-23.72-5.37h0ZM440.33,223.05c3.53-3.86,5.29-8.82,5.29-14.88s-1.76-11.02-5.29-14.88-8.16-5.79-13.89-5.79-10.2,1.93-13.72,5.79c-3.53,3.86-5.29,8.82-5.29,14.88s1.76,11.02,5.29,14.88,8.1,5.79,13.72,5.79,10.36-1.93,13.89-5.79Z"/>
    <path class="st6" d="M557.88,171.05c5.95,3.58,10.58,8.6,13.89,15.04,3.31,6.45,4.96,13.8,4.96,22.07s-1.65,15.62-4.96,22.07c-3.31,6.45-7.94,11.46-13.89,15.04-5.95,3.58-12.73,5.37-20.34,5.37-10.14,0-18.57-3.2-25.29-9.59v43.32h-25.96v-117.05h22.48l1.65,9.59c6.83-7.49,15.87-11.24,27.11-11.24,7.61,0,14.38,1.79,20.34,5.37h0ZM545.49,223.13c3.64-3.8,5.46-8.79,5.46-14.96s-1.82-11.16-5.46-14.96c-3.64-3.8-8.32-5.7-14.05-5.7s-10.39,1.93-13.97,5.79-5.37,8.82-5.37,14.88,1.79,11.02,5.37,14.88,8.24,5.79,13.97,5.79,10.42-1.9,14.05-5.7v-.02Z"/>
  </g>
  <g>
    <circle class="st2" cx="648.57" cy="83.84" r="50.43"/>
    <rect class="st3" x="617.14" y="128.31" width="62.87" height="24.35"/>
    <path class="st5" d="M688.66,263.44l-40.09,5-32.07-5c-2.69,0-4.87-2.18-4.87-4.87v-101.04c0-2.69,2.18-4.87,4.87-4.87h72.16c2.69,0,4.87,2.18,4.87,4.87v101.04c0,2.69-2.18,4.87-4.87,4.87Z"/>
    <g>
      <g class="st7">
        <path class="st4" d="M662.84,290.34l-2.77-8.77v-132.59c0-3.88-2.51-7.02-5.6-7.02h-11.8c-3.09,0-5.6,3.14-5.6,7.02v132.58l-2.77,8.77c-.59,1.86.37,3.96,1.81,3.96h24.92c1.44,0,2.4-2.1,1.81-3.96h0Z"/>
      </g>
      <path class="st4" d="M662.84,290.34l-2.77-8.77v-132.59c0-3.88-2.51-7.02-5.6-7.02h-11.8c-3.09,0-5.6,3.14-5.6,7.02v132.58l-2.77,8.77c-.59,1.86.37,3.96,1.81,3.96h24.92c1.44,0,2.4-2.1,1.81-3.96h0Z"/>
    </g>
    <circle class="st2" cx="600.61" cy="96.99" r="12.04"/>
    <path class="st5" d="M697.5,98.47s-2.53,0-3.87-1.42c-2.02-2.13-2.55-5.36-5.45-9.1-2.4-3.1-8.88-3.8-8.88-3.8l-30.74-.3-30.74.3s-6.48.7-8.88,3.8c-2.89,3.74-3.43,6.97-5.45,9.1-1.34,1.42-3.87,1.42-3.87,1.42-1.08,0-1.82,1.1-1.4,2.1l8.95,21.35c1.62,3.87,5.41,6.39,9.61,6.39h63.53c4.2,0,7.98-2.52,9.61-6.39l8.95-21.35c.42-1-.31-2.1-1.4-2.1h.03Z"/>
    <rect class="st5" x="698.29" y="173.04" width="14.01" height="68.68" rx="4.06" ry="4.06"/>
    <path class="st1" d="M705.17,173.41c.07-7.36-7.14-6.09-13.75-6.09"/>
    <path class="st1" d="M705.17,241.41c.07,7.36-7.14,6.09-13.75,6.09"/>
    <ellipse class="st2" cx="622.71" cy="84.96" rx="17.31" ry="14.1"/>
    <circle class="st2" cx="650.72" cy="82.39" r="12.29"/>
    <circle class="st2" cx="696.9" cy="91.01" r="12.29"/>
    <circle class="st2" cx="681.05" cy="86.77" r="12.29"/>
    <path class="st2" d="M677.91,108.97c0,6.79-4.1,12.29-9.15,12.29s-9.39-5.51-9.15-12.29c.3-8.42,2.03-8.32,2.71-15.38s.02-13.7.88-14.12c2.57-1.27,6.73-.68,9.95-.05,1.69.34.8,7.79,1.59,14.17.71,5.74,3.18,10.17,3.18,15.38h-.01Z"/>
  </g>
  <g>
    <path class="st5" d="M161.16,279.57v14.72h-4.77v-14.42c0-4.51-2.1-6.98-5.95-6.98-4.16,0-6.98,2.98-6.98,7.29v14.11h-4.77v-14.42c0-4.51-2.1-6.98-5.95-6.98-4.1,0-6.98,2.98-6.98,7.29v14.11h-4.77v-25.34h4.26l.05,3.28c1.9-2.51,4.46-3.74,7.69-3.74,3.85,0,6.98,1.79,8.46,4.82,2-3.18,5.18-4.82,9.18-4.82,6.52,0,10.52,4.16,10.52,11.08h0Z"/>
    <path class="st5" d="M191.12,283.52h-20.98c.46,4.36,3.8,7.03,8.67,7.03,3.08,0,6.21-1.18,7.69-2.98l3.08,2.92c-2.41,2.77-6.52,4.46-10.88,4.46-8.16,0-13.49-5.28-13.49-13.34s5.23-13.18,12.98-13.18c8.72,0,13.65,5.75,12.93,15.08h0ZM170.19,279.47h16.42c-.41-4.1-3.54-6.77-8.26-6.77-4.46,0-7.39,2.51-8.16,6.77Z"/>
    <path class="st5" d="M220.36,258.38v35.91h-4.26l-.05-3.75c-1.95,2.67-5.49,4.31-9.7,4.31-7.28,0-12.57-5.23-12.57-13.24s5.28-13.24,12.57-13.24c3.9,0,7.23,1.39,9.23,3.75v-13.75h4.78ZM215.59,281.63c0-5.18-3.54-8.82-8.52-8.82s-8.52,3.64-8.52,8.82,3.54,8.82,8.52,8.82,8.52-3.64,8.52-8.82h0Z"/>
    <path class="st5" d="M225.69,261.47c0-1.85,1.39-3.18,3.23-3.18s3.23,1.33,3.23,3.18-1.33,3.13-3.23,3.13-3.23-1.33-3.23-3.13ZM226.51,268.96h4.77v25.34h-4.77v-25.34Z"/>
    <path class="st5" d="M262.32,268.96v25.34h-4.21l-.05-3.75c-2,2.67-5.49,4.31-9.64,4.31-7.44,0-12.67-5.44-12.67-13.24s5.23-13.24,12.67-13.24c4.16,0,7.64,1.64,9.64,4.31l.05-3.75h4.21v.02ZM257.55,281.63c0-5.18-3.49-8.82-8.52-8.82s-8.52,3.64-8.52,8.82,3.54,8.82,8.52,8.82,8.52-3.64,8.52-8.82h0Z"/>
    <path class="st5" d="M278.27,290.96l2.41-3.54c2.21,1.95,5.54,3.13,9.08,3.13s5.9-1.28,5.9-3.44-1.8-3.03-6.36-3.59c-6.82-.82-10.21-3.33-10.21-7.59,0-4.51,4.31-7.54,10.77-7.54,3.85,0,7.08.98,9.95,3.03l-2.21,3.49c-2.31-1.64-4.77-2.36-7.54-2.36-4.1,0-6.31,1.18-6.31,3.33,0,1.9,1.64,2.87,5.95,3.44,7.54.97,10.67,3.23,10.67,7.85s-4.31,7.7-10.72,7.7c-4.31,0-8.11-1.33-11.39-3.9h.01Z"/>
    <path class="st5" d="M328.65,283.52h-20.98c.46,4.36,3.8,7.03,8.67,7.03,3.08,0,6.21-1.18,7.69-2.98l3.08,2.92c-2.41,2.77-6.52,4.46-10.88,4.46-8.16,0-13.49-5.28-13.49-13.34s5.23-13.18,12.98-13.18c8.72,0,13.65,5.75,12.93,15.08h0ZM307.72,279.47h16.42c-.41-4.1-3.54-6.77-8.26-6.77-4.46,0-7.39,2.51-8.16,6.77Z"/>
    <path class="st5" d="M351.43,270.49l-2.15,4c-1.44-.92-2.77-1.33-4.31-1.33-4.36,0-7.23,3.44-7.23,8.67v12.47h-4.77v-25.34h4.26l.05,4.26c2-3.18,4.57-4.72,7.95-4.72,2.41,0,4.72.77,6.21,2h-.01Z"/>
    <path class="st5" d="M378,268.96l-10.72,25.34h-5.18l-10.72-25.34h5.23l3.74,9.29,4.36,11.13,4.36-11.13,3.85-9.29h5.08Z"/>
    <path class="st5" d="M380.77,261.47c0-1.85,1.39-3.18,3.23-3.18s3.23,1.33,3.23,3.18-1.33,3.13-3.23,3.13-3.23-1.33-3.23-3.13ZM381.59,268.96h4.77v25.34h-4.77v-25.34Z"/>
    <path class="st5" d="M390.82,281.63c0-7.85,5.49-13.24,13.34-13.24,3.64,0,6.77,1.28,9.49,3.9l-2.98,3.18c-1.69-1.74-4-2.67-6.46-2.67-4.98,0-8.62,3.54-8.62,8.82s3.59,8.82,8.62,8.82c2.62,0,5.03-1.03,6.72-2.82l2.98,3.28c-2.77,2.72-5.85,3.95-9.7,3.95-7.95,0-13.39-5.28-13.39-13.24v.02Z"/>
    <path class="st5" d="M441.35,283.52h-20.98c.46,4.36,3.8,7.03,8.67,7.03,3.08,0,6.21-1.18,7.7-2.98l3.08,2.92c-2.41,2.77-6.51,4.46-10.88,4.46-8.16,0-13.49-5.28-13.49-13.34s5.23-13.18,12.98-13.18c8.72,0,13.65,5.75,12.93,15.08h-.01ZM420.42,279.47h16.42c-.41-4.1-3.54-6.77-8.26-6.77-4.46,0-7.39,2.51-8.16,6.77Z"/>
    <path class="st5" d="M443.71,290.96l2.41-3.54c2.21,1.95,5.54,3.13,9.08,3.13s5.9-1.28,5.9-3.44-1.79-3.03-6.36-3.59c-6.82-.82-10.21-3.33-10.21-7.59,0-4.51,4.31-7.54,10.77-7.54,3.85,0,7.08.98,9.95,3.03l-2.21,3.49c-2.31-1.64-4.77-2.36-7.54-2.36-4.1,0-6.31,1.18-6.31,3.33,0,1.9,1.64,2.87,5.95,3.44,7.54.97,10.67,3.23,10.67,7.85s-4.31,7.7-10.72,7.7c-4.31,0-8.11-1.33-11.39-3.9h0Z"/>
  </g>
</svg>